<svg width="32" height="32" viewBox="0 0 32 32" fill="none" xmlns="http://www.w3.org/2000/svg">
<g filter="url(#filter0_d_11_43)">
<path d="M16 0C9.37258 0 4 5.37258 4 12C4 18.6274 9.37258 24 16 24C22.6274 24 28 18.6274 28 12C28 5.37258 22.6274 0 16 0ZM11.6875 4.7666C11.9347 4.75202 12.1582 4.8998 12.3276 5.1621L13.9683 8.27342C14.141 8.6421 14.0428 9.03686 13.7852 9.30028L13.0337 10.0517C12.9873 10.1153 12.9568 10.1869 12.9561 10.2656C13.2442 11.3811 14.1184 12.4101 14.8897 13.1177C15.6609 13.8253 16.4899 14.7833 17.5659 15.0102C17.6989 15.0473 17.8619 15.0606 17.957 14.9722L18.8301 14.083C19.1314 13.8546 19.5674 13.7439 19.8892 13.9307H19.9038L22.8642 15.6782C23.2988 15.9506 23.3438 16.4771 23.0327 16.7974L20.9937 18.8203C20.6925 19.1291 20.2925 19.2329 19.9038 19.2334C18.1849 19.1819 16.5607 18.3382 15.2266 17.4712C13.0368 15.8781 11.0281 13.9023 9.7671 11.5151C9.28346 10.5141 8.71532 9.23694 8.76954 8.11966C8.77438 7.69934 8.8881 7.28756 9.1841 7.01664L11.2232 4.97758C11.382 4.84242 11.5391 4.77536 11.6875 4.7666V4.7666Z" fill="#8C9985"/>
</g>
<defs>
<filter id="filter0_d_11_43" x="0" y="0" width="32" height="32" filterUnits="userSpaceOnUse" color-interpolation-filters="sRGB">
<feFlood flood-opacity="0" result="BackgroundImageFix"/>
<feColorMatrix in="SourceAlpha" type="matrix" values="0 0 0 0 0 0 0 0 0 0 0 0 0 0 0 0 0 0 127 0" result="hardAlpha"/>
<feOffset dy="4"/>
<feGaussianBlur stdDeviation="2"/>
<feComposite in2="hardAlpha" operator="out"/>
<feColorMatrix type="matrix" values="0 0 0 0 0 0 0 0 0 0 0 0 0 0 0 0 0 0 0.25 0"/>
<feBlend mode="normal" in2="BackgroundImageFix" result="effect1_dropShadow_11_43"/>
<feBlend mode="normal" in="SourceGraphic" in2="effect1_dropShadow_11_43" result="shape"/>
</filter>
</defs>
</svg>
